<svg xmlns="http://www.w3.org/2000/svg" version="1.1" xmlns:xlink="http://www.w3.org/1999/xlink" xmlns:svgjs="http://svgjs.dev/svgjs" width="765" height="625" viewBox="0 0 300 300" class="svg-animations " style="background-color: rgb(0, 0, 0);"><svg viewBox="0 0 135.01023864746094 139.9990234375" width="110.00000000000001" height="110.00000000000001" x="47.18499755859374" y="95" style="fill: rgb(0, 210, 255);"><svg width="135" height="135" viewBox="0 0 135 135" xmlns="http://www.w3.org/2000/svg">
	<g clip-path="url(#clip0)">
	<path d="M50.6249 77.334C54.4896 75.4546 58.4602 72.9002 62.497 69.512C63.3308 68.8105 63.4367 67.5531 62.7352 66.7193C62.0338 65.8855 60.7764 65.7664 59.9426 66.4811C55.9852 69.8031 52.1073 72.2781 48.3485 74.0384C45.9396 70.9414 42.8426 67.9899 38.8455 65.7267C28.9852 60.1414 16.3455 60.287 1.27052 66.1502C0.635228 66.4017 0.171992 66.9443 0.0396395 67.6061C-0.0927135 68.2678 0.119051 68.9561 0.608757 69.4325C0.846992 69.6575 21.1764 88.7693 46.9058 78.9487C51.0485 85.4075 52.2132 91.8267 52.2264 91.9325C52.3985 92.8987 53.2323 93.587 54.1852 93.587C54.2911 93.587 54.4102 93.5737 54.5293 93.5605C55.6146 93.3752 56.3293 92.3561 56.1441 91.2708C56.0646 90.8208 54.8867 84.2031 50.6249 77.334ZM5.88964 68.6914C18.3573 64.4428 28.7735 64.6017 36.8602 69.1678C39.9705 70.9281 42.4852 73.2046 44.497 75.6267C26.3779 82.0987 11.6073 73.0723 5.88964 68.6914Z"/>
	<path d="M51.2604 99.7676C50.9427 99.8073 19.6677 103.606 19.6677 131.572C19.6677 132.671 20.5545 133.557 21.653 133.557C21.8383 133.557 22.0236 133.531 22.2089 133.478C22.381 133.531 22.5663 133.557 22.7648 133.557C22.7913 133.557 22.8177 133.557 22.8442 133.557C23.1486 133.544 53.4707 132.035 53.4707 101.753C53.4707 101.184 53.2324 100.654 52.8089 100.271C52.3854 99.8867 51.8295 99.7014 51.2604 99.7676ZM23.7177 129.507C24.9486 110.66 42.9354 105.379 49.4339 104.096C48.1104 125.748 28.5221 129.031 23.7177 129.507Z"/>
	<path d="M91.2573 78.8559C90.8205 78.9353 84.2029 80.1132 77.3338 84.375C75.4544 80.5103 72.9 76.5397 69.5117 72.5029C68.8102 71.6691 67.5529 71.55 66.7191 72.2647C65.8852 72.9662 65.7661 74.2235 66.4808 75.0573C69.8029 79.0147 72.2779 82.8926 74.0382 86.6515C70.9411 89.0603 67.9897 92.1574 65.7264 96.1544C60.1411 106.015 60.2867 118.654 66.1499 133.729C66.4014 134.365 66.9441 134.828 67.6058 134.96C67.7382 134.987 67.8705 135 67.9897 135C68.5191 135 69.0352 134.788 69.4191 134.391C69.6573 134.153 88.7558 113.824 78.9352 88.0941C85.3941 83.9515 91.8132 82.7868 91.9191 82.7735C93.0044 82.5882 93.7191 81.5559 93.5338 80.4838C93.3617 79.3985 92.3426 78.6706 91.2573 78.8559ZM68.6911 129.11C64.4426 116.643 64.6014 106.226 69.1676 98.1397C70.9279 95.0294 73.2044 92.5147 75.6264 90.5029C82.0985 108.622 73.072 123.393 68.6911 129.11Z"/>
	<path d="M133.558 112.156C133.544 111.851 132.022 81.5293 101.753 81.5293C101.184 81.5293 100.655 81.7675 100.271 82.1911C99.9002 82.6146 99.7149 83.1705 99.781 83.7396C99.8207 84.0572 103.619 115.332 131.585 115.332C132.684 115.332 133.571 114.445 133.571 113.347C133.571 113.162 133.544 112.963 133.491 112.791C133.531 112.593 133.558 112.381 133.558 112.156ZM104.096 85.5661C125.749 86.8896 129.031 106.478 129.508 111.282C110.66 110.065 105.38 92.0646 104.096 85.5661Z"/>
	<path d="M134.391 65.5678C134.153 65.3428 113.824 46.231 88.0943 56.0516C83.9517 49.5927 82.787 43.1736 82.7737 43.0678C82.5884 41.9825 81.5561 41.2678 80.484 41.453C79.3987 41.6383 78.684 42.6575 78.8693 43.7428C78.9487 44.1795 80.1267 50.7972 84.3884 57.6663C80.5237 59.5457 76.5531 62.1001 72.5164 65.4883C71.6825 66.1898 71.5634 67.4472 72.2781 68.281C72.9796 69.1148 74.237 69.2339 75.0708 68.5192C79.0281 65.1972 82.9061 62.7222 86.6649 60.9619C89.0737 64.0589 92.1708 67.0104 96.1678 69.2736C100.972 72.0001 106.452 73.3633 112.54 73.3633C118.933 73.3633 126.027 71.8678 133.743 68.8633C134.378 68.6119 134.841 68.0692 134.974 67.4075C135.106 66.7457 134.881 66.0442 134.391 65.5678ZM98.1399 65.8325C95.0296 64.0722 92.5149 61.7957 90.5031 59.3736C108.609 52.9148 123.38 61.928 129.11 66.3222C116.643 70.5575 106.227 70.3986 98.1399 65.8325Z"/>
	<path d="M83.5146 35.2458C83.5808 35.2458 83.6602 35.2458 83.7396 35.2325C84.0572 35.1928 115.332 31.3943 115.332 3.44135C115.332 2.34282 114.445 1.45605 113.347 1.45605C113.162 1.45605 112.963 1.48253 112.791 1.53547C112.593 1.48253 112.381 1.45605 112.156 1.45605C111.851 1.45605 81.5293 2.97811 81.5293 33.2605C81.5293 33.8296 81.7675 34.359 82.1911 34.7428C82.5616 35.0605 83.0249 35.2458 83.5146 35.2458ZM111.295 5.49282C110.065 24.3399 92.0778 29.6075 85.5793 30.9046C86.8896 9.25164 106.478 5.96929 111.295 5.49282Z"/>
	<path d="M43.7427 56.1441C44.1795 56.0646 50.7971 54.8867 57.6662 50.6249C59.5456 54.4896 62.1001 58.4602 65.4883 62.497C65.8853 62.9602 66.4412 63.1985 67.0103 63.1985C67.4604 63.1985 67.9103 63.0396 68.2809 62.7352C69.1148 62.0338 69.2206 60.7764 68.5192 59.9426C65.1971 55.9852 62.7221 52.1073 60.9618 48.3485C64.0589 45.9396 67.0103 42.8426 69.2736 38.8455C74.8589 28.9852 74.7133 16.3455 68.8501 1.27052C68.5986 0.635228 68.0559 0.171992 67.3942 0.0396395C66.7324 -0.0927135 66.0442 0.119051 65.5677 0.608757C65.3427 0.846992 46.2309 21.1764 56.0648 46.9058C49.6059 51.0485 43.1868 52.2132 43.0809 52.2264C41.9956 52.4117 41.2809 53.444 41.4662 54.5161C41.6383 55.6014 42.6574 56.3293 43.7427 56.1441ZM66.3089 5.88964C70.5574 18.3573 70.3986 28.7735 65.8324 36.8602C64.0721 39.9705 61.7956 42.4852 59.3736 44.497C52.9015 26.3779 61.928 11.6073 66.3089 5.88964Z"/>
	<path d="M1.44263 22.844C1.45586 23.1484 2.97792 53.4704 33.2603 53.4704C33.8294 53.4704 34.3588 53.2322 34.7426 52.8087C35.1132 52.3851 35.2985 51.8292 35.2323 51.2601C35.1926 50.9425 31.3941 19.6675 3.42792 19.6675C2.32939 19.6675 1.44263 20.5542 1.44263 21.6528C1.44263 21.8381 1.4691 22.0234 1.52204 22.2087C1.4691 22.4072 1.44263 22.619 1.44263 22.844ZM30.9044 49.4337C9.25145 48.1101 5.9691 28.5351 5.49263 23.7175C24.3397 24.9351 29.6206 42.9351 30.9044 49.4337Z"/>
	</g>
	</svg></svg><svg x="167.18499755859375" y="119.48999977111816" style="fill: rgb(0, 210, 255);"><path d="M39.37 42.46L39.37 42.46L40.01 42.46L40.01 43L28.24 43L28.24 42.46L28.94 42.46Q30.29 42.46 31.29 41.52Q32.29 40.57 32.40 39.17L32.40 39.17L32.40 25.13L11.50 25.13L11.50 39.22Q11.50 46.78 7.83 49.37L7.83 49.37Q6.16 50.56 3.51 51.15L3.51 51.15L3.24 50.67Q5.67 49.37 6.83 46.67Q7.99 43.97 7.99 39.22L7.99 39.22L7.99 9.09Q7.99 7.68 6.97 6.71Q5.94 5.74 4.54 5.74L4.54 5.74L3.89 5.74L3.89 5.20L15.66 5.20L15.66 5.74L14.96 5.74Q13.55 5.74 12.55 6.71Q11.56 7.68 11.50 9.09L11.50 9.09L11.50 23.51L32.40 23.51L32.40 10.06Q32.45 3.15 35.48 0.45L35.48 0.45Q37.31-1.17 40.45-1.87L40.45-1.87L40.72-1.39Q38.29-0.09 37.10 2.61Q35.91 5.31 35.91 10.06L35.91 10.06L35.91 39.06Q35.91 40.46 36.91 41.46Q37.91 42.46 39.37 42.46ZM61.83 4.34L61.83 4.34Q66.53 4.34 69.66 6.60L69.66 6.60Q73.87 9.63 73.87 16.05L73.87 16.05Q73.87 20.70 71.28 23.99L71.28 23.99Q68.47 27.50 63.45 27.50L63.45 27.50Q60.80 27.50 58.64 26.23Q56.48 24.96 56.11 21.89L56.11 21.89L56.59 21.72Q57.19 24.05 59.35 24.96L59.35 24.96Q60.80 25.61 61.94 25.61L61.94 25.61Q66.37 25.61 68.36 22.16L68.36 22.16Q69.82 19.62 69.82 16.11L69.82 16.11Q69.82 10.49 66.69 8.01L66.69 8.01Q64.31 6.06 60.64 6.06L60.64 6.06Q59.78 6.06 59.16 6.15Q58.54 6.23 53.73 7.04L53.73 7.04L53.73 39.06Q53.78 40.52 54.81 41.49Q55.84 42.46 57.19 42.46L57.19 42.46L57.89 42.46L57.89 43L46.06 43L46.06 42.46L46.76 42.46Q48.11 42.46 49.14 41.49Q50.17 40.52 50.22 39.06L50.22 39.06L50.22 9.84Q50.22 8.44 49.41 7.66Q48.60 6.87 47.30 6.87L47.30 6.87Q47.03 6.87 46.76 6.93L46.76 6.93L46.12 6.98L46.01 6.44Q48.82 6.17 53.54 5.39Q58.27 4.61 59.40 4.47Q60.53 4.34 61.83 4.34Z"/></svg><text fill="#ffffff" font-family="Georgia" font-size="16px" x="205" y="180.51000022888184"><tspan dy="0" x="205"></tspan></text></svg>