<?xml version="1.0" standalone="no"?>
<!DOCTYPE svg PUBLIC "-//W3C//DTD SVG 20010904//EN"
 "http://www.w3.org/TR/2001/REC-SVG-20010904/DTD/svg10.dtd">
<svg version="1.0" xmlns="http://www.w3.org/2000/svg"
 width="832.000000pt" height="448.000000pt" viewBox="0 0 832.000000 448.000000"
 preserveAspectRatio="xMidYMid meet">

<g transform="translate(0.000000,448.000000) scale(0.100000,-0.100000)"
fill="#000000" stroke="none">
<path d="M0 2571 l0 -1909 53 -21 c85 -34 146 -44 267 -43 201 0 390 71 538
201 68 60 182 203 182 229 0 5 10 17 21 28 34 31 71 122 58 145 -8 16 -5 26
20 55 17 19 33 47 36 62 4 15 11 45 16 67 14 58 26 210 23 280 -7 110 -25 204
-60 301 -19 53 -34 98 -34 101 0 11 47 -45 58 -70 26 -60 63 -237 69 -332 6
-114 -9 -280 -32 -345 -22 -63 -8 -91 58 -119 62 -27 110 -60 86 -61 -9 0 -46
11 -81 24 -74 28 -104 25 -112 -10 -13 -49 -121 -230 -177 -296 -75 -87 -117
-124 -217 -191 -87 -58 -206 -107 -310 -127 -98 -20 -289 -8 -384 23 l-78 25
0 -294 0 -294 4160 0 4160 0 0 2240 0 2240 -4160 0 -4160 0 0 -1909z m484 264
c18 -19 11 -41 -17 -57 -16 -8 -23 -7 -34 8 -17 23 -16 29 3 48 19 20 29 20
48 1z m6326 -270 c62 -14 126 -33 142 -41 41 -21 109 -84 102 -95 -3 -5 0 -9
5 -9 6 0 11 -5 11 -12 0 -7 -7 -5 -17 4 -30 26 -105 56 -208 83 -125 32 -254
35 -302 5 -52 -32 -57 -49 -47 -189 14 -202 12 -258 -12 -281 -23 -23 -79 -29
-111 -12 -51 27 -33 88 35 120 42 20 40 4 27 197 -7 104 -6 112 17 155 53 99
157 120 358 75z m-6486 3 c11 -1 -8 -4 -44 -7 -36 -4 -69 -4 -75 -2 -16 8 38
20 69 15 16 -2 38 -5 50 -6z m-134 -3 c0 -2 -10 -10 -22 -16 -21 -11 -22 -11
-9 4 13 16 31 23 31 12z m275 -5 c3 -6 -1 -7 -9 -4 -18 7 -21 14 -7 14 6 0 13
-4 16 -10z m175 -36 c23 -13 21 -13 -28 -10 -32 2 -60 10 -70 20 -15 15 -13
16 28 10 25 -3 56 -12 70 -20z m7452 -84 c25 -26 29 -36 24 -63 -13 -66 -80
-87 -134 -42 -56 47 -114 30 -284 -86 -46 -32 -112 -72 -147 -90 -56 -30 -74
-34 -135 -33 -79 0 -130 20 -139 54 -5 20 -3 21 41 13 136 -21 209 6 391 145
68 51 138 83 198 89 30 3 71 14 91 24 49 25 58 24 94 -11z m-7277 -10 c-3 -5
-12 -10 -18 -10 -7 0 -6 4 3 10 19 12 23 12 15 0z m2420 -100 c0 -18 -5 -24
-17 -22 -29 5 -58 -17 -58 -43 0 -21 5 -25 30 -25 25 0 30 -4 30 -24 0 -21 -6
-25 -32 -28 l-33 -3 3 -59 c2 -32 1 -78 -3 -103 -5 -38 -9 -44 -28 -41 -21 3
-22 9 -25 106 -2 94 -4 102 -22 102 -15 0 -20 7 -20 25 0 18 5 25 20 25 14 0
20 7 20 23 1 54 51 99 105 94 25 -2 30 -6 30 -27z m339 24 c14 -5 16 -32 16
-190 l0 -184 -25 0 -25 0 0 183 c0 159 3 197 16 197 1 0 9 -3 18 -6z m1427
-15 c7 -14 9 -41 5 -72 -6 -45 -5 -49 11 -42 28 12 81 18 106 11 71 -17 104
-109 69 -189 -17 -37 -27 -47 -67 -63 -47 -18 -49 -18 -86 3 -30 17 -39 18
-39 7 0 -8 -10 -14 -25 -14 l-25 0 0 183 c0 101 3 187 7 190 13 13 32 7 44
-14z m-1296 -24 c0 -25 -4 -30 -25 -30 -16 0 -26 6 -28 18 -6 30 6 49 30 45
18 -2 23 -9 23 -33z m1833 26 c8 -4 12 -19 10 -32 -4 -33 -53 -40 -63 -9 -11
36 22 61 53 41z m-3178 -16 c59 -30 79 -119 38 -170 -28 -36 -76 -55 -137 -55
l-50 0 -3 -57 c-3 -54 -5 -58 -28 -58 l-25 0 -3 165 c-1 90 0 170 2 177 8 19
168 18 206 -2z m1866 -12 c20 -91 57 -229 64 -236 3 -4 21 41 39 100 18 59 36
119 40 133 6 19 14 25 37 25 28 0 29 -2 68 -132 22 -73 41 -131 44 -129 2 3
21 62 41 133 35 121 38 128 64 131 17 2 27 -1 27 -10 0 -14 -80 -274 -99 -321
-9 -23 -16 -28 -38 -25 -26 3 -30 10 -63 118 -20 63 -38 122 -41 130 -3 8 -18
-25 -33 -75 -49 -165 -54 -175 -86 -175 -26 0 -30 5 -45 58 -9 31 -29 100 -45
152 -26 87 -34 123 -31 143 0 4 12 7 26 7 19 0 26 -7 31 -27z m-1246 -38 c0
-33 2 -35 36 -35 31 0 35 -3 32 -22 -2 -18 -11 -24 -35 -26 l-33 -3 0 -64 c0
-81 6 -95 40 -95 27 0 46 -22 34 -41 -11 -18 -77 -10 -101 13 -20 19 -23 31
-23 104 0 78 -1 83 -22 86 -36 5 -96 -12 -104 -31 -4 -9 -10 -52 -13 -96 -5
-72 -8 -80 -27 -83 -20 -3 -21 2 -27 120 -6 127 -3 138 36 138 9 0 17 -7 17
-15 0 -14 2 -14 23 0 12 8 40 14 61 13 41 -1 56 12 56 50 0 17 6 22 25 22 22
0 25 -4 25 -35z m2700 0 c0 -30 3 -35 23 -35 31 0 51 -15 44 -34 -4 -10 -18
-16 -37 -16 l-31 0 3 -77 3 -78 33 -3 c26 -3 32 -7 32 -28 0 -22 -4 -24 -43
-24 -66 0 -81 22 -86 126 -3 75 -5 84 -22 84 -14 0 -19 7 -19 25 0 18 5 25 20
25 15 0 20 7 20 28 0 35 6 42 37 42 20 0 23 -5 23 -35z m-4670 -20 l23 -24
-23 4 c-29 6 -44 20 -36 34 9 15 9 15 36 -14z m4408 -42 c12 -13 22 -29 22
-34 0 -21 -32 -21 -54 0 -29 27 -72 28 -86 1 -12 -22 -2 -28 84 -56 72 -23 81
-103 15 -137 -57 -29 -159 -1 -159 44 0 22 28 38 39 22 19 -30 87 -43 109 -21
18 18 -4 45 -45 53 -61 11 -90 31 -97 66 -8 42 14 76 57 87 46 13 88 4 115
-25z m-2778 7 c16 -11 36 -40 46 -65 16 -42 16 -48 0 -90 -42 -108 -188 -117
-241 -15 -30 57 -12 127 41 169 36 28 115 29 154 1z m790 5 c36 -19 63 -67 63
-115 0 -80 -54 -130 -139 -130 -39 0 -51 5 -79 33 -59 59 -59 135 0 194 28 28
40 33 79 33 26 0 60 -7 76 -15z m275 -2 c3 -10 3 -68 -1 -130 -7 -110 -7 -113
-30 -113 -24 0 -24 0 -24 123 0 68 3 127 7 130 13 13 41 7 48 -10z m268 -17
c77 -77 44 -203 -60 -227 -50 -11 -95 4 -128 42 -49 59 -45 131 10 186 29 29
39 33 89 33 50 0 59 -3 89 -34z m885 9 c28 -23 57 -98 46 -117 -3 -4 -45 -8
-94 -8 -49 0 -92 -4 -95 -10 -9 -15 41 -60 66 -60 11 0 33 7 49 16 28 17 60
14 60 -6 0 -21 -65 -50 -111 -50 -58 0 -91 25 -114 84 -22 56 -8 113 36 150
42 36 115 36 157 1z m682 -105 l0 -130 -25 0 -25 0 0 130 0 130 25 0 25 0 0
-130z m427 110 c21 -13 35 -31 42 -57 21 -74 22 -73 -84 -73 -105 0 -119 -10
-69 -49 31 -25 53 -26 80 -6 21 16 74 20 74 6 0 -5 -14 -21 -31 -35 -24 -20
-41 -26 -81 -26 -45 0 -54 4 -89 39 -34 34 -39 44 -39 85 0 53 19 97 52 120
31 22 106 20 145 -4z m-4887 -61 c11 -19 10 -20 -9 -10 -27 15 -36 31 -17 31
8 0 20 -9 26 -21z m660 -399 c23 -23 26 -69 8 -91 -7 -9 -26 -23 -42 -33 l-29
-18 8 -127 c15 -222 12 -275 -16 -315 -29 -42 -49 -53 -49 -26 0 10 4 21 9 24
18 11 21 89 6 191 -8 58 -15 169 -14 245 0 132 1 140 22 155 30 21 73 19 97
-5z m1177 -445 c57 -65 9 -165 -79 -165 -48 0 -57 5 -81 40 -30 44 -19 105 27
143 32 27 103 17 133 -18z m3083 -145 c0 -5 -4 -10 -10 -10 -5 0 -10 5 -10 10
0 6 5 10 10 10 6 0 10 -4 10 -10z m-5002 -62 c32 -32 -9 -96 -44 -67 -19 16
-18 56 4 68 22 13 26 13 40 -1z"/>
<path d="M5029 2171 c-41 -41 -40 -90 2 -125 38 -32 63 -33 94 -1 50 49 18
155 -45 155 -12 0 -35 -13 -51 -29z"/>
<path d="M2210 2225 l0 -65 58 0 c68 0 92 18 92 67 0 45 -27 63 -93 63 l-57 0
0 -65z"/>
<path d="M2515 2175 c-19 -18 -25 -35 -25 -70 0 -40 3 -47 33 -65 43 -26 53
-25 88 9 44 44 35 116 -18 140 -36 16 -51 14 -78 -14z"/>
<path d="M3316 2175 c-20 -18 -26 -34 -26 -65 0 -31 6 -47 26 -65 30 -28 42
-30 77 -14 78 35 48 169 -37 169 -7 0 -25 -11 -40 -25z"/>
<path d="M3835 2175 c-35 -34 -35 -96 0 -130 32 -33 70 -32 100 1 35 38 34 87
-4 125 -36 35 -64 37 -96 4z"/>
<path d="M4742 2184 c-12 -8 -22 -24 -22 -35 0 -17 7 -19 59 -19 33 0 63 4 66
10 8 14 -40 60 -62 60 -10 0 -29 -7 -41 -16z"/>
<path d="M5863 2188 c-22 -11 -37 -34 -29 -47 3 -4 32 -8 65 -9 68 -3 77 8 41
46 -23 24 -43 27 -77 10z"/>
</g>
</svg>
